<?xml version="1.0" encoding="UTF-8"?>
<svg version="1.1" xmlns="http://www.w3.org/2000/svg" width="512" height="512">
<path d="M0 0 C0.67972642 -0.00367669 1.35945283 -0.00735338 2.05977702 -0.01114148 C4.33655094 -0.02215107 6.61327917 -0.0260175 8.89007568 -0.02983093 C10.52298629 -0.03609761 12.15589547 -0.04274459 13.7888031 -0.04974365 C19.15035005 -0.07076097 24.51189721 -0.0811434 29.87347412 -0.09111023 C31.72073125 -0.09515856 33.56798823 -0.09927551 35.41524506 -0.10346031 C44.09384042 -0.12250633 52.77242731 -0.13673898 61.45103955 -0.14507228 C71.46274892 -0.15484492 81.47423722 -0.18116761 91.48586869 -0.22157317 C99.22868735 -0.25174792 106.97144268 -0.26654242 114.71431899 -0.26985329 C119.33682936 -0.27220209 123.95910339 -0.28114042 128.5815506 -0.30631447 C132.9318555 -0.32962423 137.28176892 -0.33381682 141.63212013 -0.32355309 C143.22520819 -0.32305833 144.81831572 -0.32936098 146.41134453 -0.34310913 C155.72809843 -0.41899032 163.14956681 -0.4515538 170.40472412 6.11201477 C170.92550537 6.76299133 171.44628662 7.4139679 171.98284912 8.08467102 C172.82782959 9.12301086 172.82782959 9.12301086 173.68988037 10.18232727 C174.4536499 11.15492493 174.4536499 11.15492493 175.23284912 12.14717102 C176.43941162 13.57029602 176.43941162 13.57029602 177.67034912 15.02217102 C179.23284912 17.14717102 179.23284912 17.14717102 179.23284912 19.14717102 C181.09397512 19.14302295 181.09397512 19.14302295 182.99269962 19.13879108 C212.44962095 19.07380905 241.90652598 19.02434523 271.36350122 18.99397503 C274.98962838 18.99022294 278.61575539 18.98633997 282.24188232 18.9823761 C282.96377493 18.98158917 283.68566753 18.98080224 284.42943566 18.97999146 C296.11621006 18.9669397 307.80294016 18.94328713 319.48968828 18.91571263 C331.48254093 18.88765202 343.47537038 18.87099337 355.46825451 18.86490554 C362.20398666 18.86115958 368.93962646 18.85215443 375.67532539 18.82998085 C382.01423639 18.80963006 388.35300547 18.80333445 394.69194603 18.80784798 C397.01915889 18.80702215 399.34637647 18.80104826 401.6735611 18.7895546 C404.85048586 18.77463285 408.02687452 18.77821661 411.20381165 18.78640747 C412.12503124 18.77766895 413.04625084 18.76893042 413.99538618 18.75992709 C420.26058361 18.80359859 425.27561817 19.60819385 430.19378662 23.83076477 C430.66042725 24.40955383 431.12706787 24.9883429 431.60784912 25.58467102 C432.33101318 26.44898743 432.33101318 26.44898743 433.06878662 27.33076477 C435.37988981 30.93701639 435.35901447 34.5610253 435.36427689 38.75792408 C435.36811803 39.90760853 435.37195918 41.05729297 435.37591672 42.24181634 C435.37505024 43.50551213 435.37418375 44.76920791 435.37329102 46.07119751 C435.37587493 47.42672106 435.37888817 48.78224385 435.38229442 50.13776559 C435.39036444 53.86633551 435.39215399 57.59488618 435.39289188 61.3234638 C435.39474241 65.34333842 435.40228971 69.36320305 435.4090271 73.3830719 C435.42261054 82.17434561 435.42863504 90.96561476 435.43303776 99.75689721 C435.43579993 105.24526265 435.44003721 110.73362633 435.44454193 116.22199059 C435.45673417 131.41526968 435.46703386 146.60854736 435.47041702 161.80183125 C435.47063659 162.77427393 435.47085615 163.74671661 435.47108237 164.74862726 C435.47130065 165.72340453 435.47151893 166.6981818 435.47174382 167.70249778 C435.47218729 169.67778925 435.47263385 171.65308072 435.4730835 173.62837219 C435.47330493 174.60818627 435.47352636 175.58800035 435.4737545 176.59750577 C435.47770336 192.47756595 435.49516029 208.35758026 435.51844302 224.23762272 C435.54214962 240.53821386 435.55461854 256.83878198 435.55578494 273.13939065 C435.55670204 282.29290686 435.56246328 291.4463633 435.58060455 300.59986305 C435.59599615 308.39345584 435.60113154 316.18697038 435.59286645 323.98057548 C435.58895672 327.95712769 435.58990523 331.93352229 435.6039238 335.91005516 C435.61664328 339.55136962 435.61548256 343.19240769 435.60333309 346.83372166 C435.60044496 348.77292393 435.61232662 350.71213089 435.62475514 352.65129548 C435.57986853 360.53563969 435.07728956 365.77875471 429.85784912 371.95967102 C425.40085111 375.67383603 421.70657833 376.39757318 415.97381592 376.3742218 C414.11245247 376.37399521 414.11245247 376.37399521 412.21348572 376.37376404 C410.86967812 376.36355245 409.52587217 376.35312048 408.18206787 376.34248352 C406.79916082 376.33875033 405.41625111 376.33590481 404.03334045 376.33390808 C400.40504572 376.32629564 396.77691275 376.30666793 393.14868164 376.28450012 C389.44173368 376.26399002 385.73475942 376.25489535 382.027771 376.24482727 C374.76272353 376.22341957 367.49780905 376.18931277 360.23284912 376.14717102 C360.03321312 377.68641739 360.03321312 377.68641739 359.82954407 379.25675964 C359.65099453 380.618516 359.47235514 381.98026058 359.29364014 383.34199524 C359.16277889 384.35377083 359.16277889 384.35377083 359.02927399 385.38598633 C354.43456284 420.25638408 334.59855846 455.0096781 307.23284912 477.14717102 C305.8155249 478.30346008 305.8155249 478.30346008 304.36956787 479.48310852 C277.15816373 501.27173517 245.07406536 512.96898282 210.18988037 512.6686554 C207.2346193 512.64718388 204.28178799 512.668604 201.32659912 512.69404602 C160.82453911 512.75386372 125.12753412 494.81542627 96.23284912 467.14717102 C93.75300369 464.58801284 91.4753808 461.91566961 89.23284912 459.14717102 C88.0939624 457.76465149 88.0939624 457.76465149 86.93206787 456.35420227 C73.57685672 439.80890126 63.89448562 420.93542594 58.35784912 400.39717102 C58.16666504 399.69028137 57.97548096 398.98339172 57.77850342 398.25508118 C56.54888676 393.32880036 55.8189698 388.36890001 55.16986084 383.33760071 C55.07901718 382.64451813 54.98817352 381.95143555 54.89457703 381.23735046 C54.6724373 379.54082801 54.45242676 377.84402699 54.23284912 376.14717102 C53.47387329 376.15605347 52.71489746 376.16493591 51.93292236 376.17408752 C44.753972 376.25448597 37.57524224 376.31526271 30.39595795 376.35441971 C26.70564958 376.37522812 23.01571554 376.40342021 19.32562256 376.44892883 C15.75942851 376.49263045 12.19359281 376.51635878 8.62715149 376.52667999 C6.615348 376.53758596 4.60368716 376.56877293 2.59210205 376.60035706 C-4.67325026 376.60212627 -9.6532247 376.20906259 -15.76715088 372.14717102 C-20.05853952 366.86546192 -20.89070003 362.88787459 -20.89857864 356.23968792 C-20.90241979 355.02381896 -20.90626093 353.80794999 -20.91021848 352.55523652 C-20.90943824 351.20410131 -20.90855946 349.85296615 -20.90759277 348.50183105 C-20.91017651 347.06793634 -20.91318969 345.63404235 -20.91659617 344.20014936 C-20.92466831 340.25494975 -20.92645586 336.30976833 -20.92719364 332.36456144 C-20.9290438 328.11155609 -20.93659091 323.85856019 -20.94332886 319.6055603 C-20.9569138 310.30397221 -20.96293703 301.00238843 -20.96733952 291.70079207 C-20.97010143 285.89415823 -20.97433866 280.08752605 -20.97884369 274.28089333 C-20.99103611 258.2074745 -21.00133578 242.13405701 -21.00471878 226.06063366 C-21.00493835 225.03180636 -21.00515791 224.00297906 -21.00538413 222.94297518 C-21.00560241 221.9116739 -21.00582069 220.88037261 -21.00604558 219.81781977 C-21.00648905 217.72797787 -21.00693561 215.63813597 -21.00738525 213.54829407 C-21.00760668 212.51165831 -21.00782811 211.47502254 -21.00805625 210.40697358 C-21.01200524 193.60543455 -21.02946247 176.80393886 -21.05274478 160.00241657 C-21.07644937 142.75713516 -21.08892021 125.51187551 -21.0900867 108.26657754 C-21.09100391 98.58209486 -21.09676798 88.89766866 -21.11490631 79.21320152 C-21.13029519 70.96762708 -21.1354349 62.72212659 -21.12716821 54.47654053 C-21.12325752 50.26911118 -21.12421168 46.0618308 -21.13822556 41.85441971 C-21.15093926 38.00216207 -21.14978936 34.15016573 -21.13763484 30.29790858 C-21.13567346 28.90490899 -21.13877668 27.51189104 -21.14747921 26.11891725 C-21.23485863 11.1861253 -21.23485863 11.1861253 -16.08355713 5.18623352 C-15.50476807 4.7195929 -14.925979 4.25295227 -14.32965088 3.77217102 C-13.46533447 3.04900696 -13.46533447 3.04900696 -12.58355713 2.31123352 C-8.65043496 -0.209348 -4.56813765 0.0160352 0 0 Z M12.23284912 33.14717102 C12.23284912 135.44717102 12.23284912 237.74717102 12.23284912 343.14717102 C26.09284912 343.14717102 39.95284912 343.14717102 54.23284912 343.14717102 C54.93409912 339.55842102 55.63534912 335.96967102 56.35784912 332.27217102 C59.81389474 315.40721752 64.9162372 300.22674208 73.23284912 285.14717102 C73.58218506 284.50650696 73.931521 283.8658429 74.29144287 283.20576477 C79.61562363 273.55203042 85.89604907 265.3477672 93.23284912 257.14717102 C93.92249756 256.32474915 94.612146 255.50232727 95.32269287 254.65498352 C100.36333309 248.69692617 106.05944105 243.90052517 112.23284912 239.14717102 C113.0862085 238.47814758 113.93956787 237.80912415 114.81878662 237.11982727 C141.49875413 216.88952158 173.6316257 206.65313867 206.98284912 206.83467102 C208.03233734 206.83740524 208.03233734 206.83740524 209.10302734 206.8401947 C220.06161019 206.88812582 230.56201416 207.53222449 241.23284912 210.14717102 C241.95504639 210.31346008 242.67724365 210.47974915 243.42132568 210.65107727 C282.24859344 219.7236539 316.38709671 244.64517922 337.58294678 278.29023743 C349.99280005 298.78135059 355.56446411 319.80524596 360.23284912 343.14717102 C374.09284912 343.14717102 387.95284912 343.14717102 402.23284912 343.14717102 C402.23284912 266.25717102 402.23284912 189.36717102 402.23284912 110.14717102 C339.973863 109.93703761 339.973863 109.93703761 277.71478271 109.75923157 C265.68133545 109.70930481 265.68133545 109.70930481 260.05038452 109.68215942 C256.1123027 109.66420145 252.17429526 109.65461207 248.23617554 109.65005493 C243.21380857 109.6439702 238.1916889 109.62365665 233.16941381 109.59300959 C231.32564431 109.58418682 229.48184247 109.58037594 227.6380527 109.58213174 C225.1475816 109.58378506 222.65787699 109.56712763 220.16751099 109.54589844 C219.08511863 109.55317066 219.08511863 109.55317066 217.98085976 109.56058979 C212.38691103 109.48209925 208.35944943 108.08455738 204.21331787 104.30732727 C199.87694898 99.23405909 195.81089161 94.01569055 191.84613037 88.64717102 C188.73196499 84.4475246 185.51172937 80.33122395 182.29534912 76.20967102 C176.57799248 68.87796602 170.89437707 61.52205611 165.23284912 54.14717102 C164.35809179 53.01156738 163.48308618 51.87615496 162.60784912 50.74092102 C162.16860107 50.1709137 161.72935303 49.60090637 161.27679443 49.0136261 C160.06965052 47.44729992 158.86219922 45.88121066 157.65472412 44.31513977 C154.82298685 40.61104473 152.03035876 36.87718387 149.23284912 33.14717102 C104.02284912 33.14717102 58.81284912 33.14717102 12.23284912 33.14717102 Z M206.23284912 52.14717102 C207.76703659 55.21554595 209.10970619 57.45725186 211.16644287 60.11592102 C211.73298584 60.85197571 212.29952881 61.5880304 212.88323975 62.34638977 C213.76785889 63.48527649 213.76785889 63.48527649 214.67034912 64.64717102 C215.83580377 66.15751819 217.00117121 67.66793267 218.16644287 69.17842102 C218.68263184 69.8442218 219.1988208 70.51002258 219.73065186 71.19599915 C221.23284912 73.14717102 221.23284912 73.14717102 222.38184071 75.23905563 C224.16496992 77.46003601 224.16496992 77.46003601 227.38188457 77.63936234 C229.34668632 77.63383158 229.34668632 77.63383158 231.35118103 77.62818909 C232.08061662 77.63160679 232.81005222 77.63502449 233.56159192 77.63854575 C236.0125473 77.64514891 238.46241412 77.62310971 240.91326904 77.60127258 C242.66738357 77.60014463 244.42149998 77.60077695 246.1756134 77.6030426 C250.94404333 77.6041927 255.71207274 77.58063563 260.48040938 77.55274677 C265.46120801 77.52778232 270.44201529 77.52539504 275.42286682 77.52064514 C284.85766939 77.50820077 294.29228709 77.4753594 303.72700816 77.43524718 C314.46687149 77.39057492 325.20674354 77.36855387 335.94667661 77.34846544 C358.04217351 77.30662804 380.13749318 77.23544415 402.23284912 77.14717102 C402.23284912 68.89717102 402.23284912 60.64717102 402.23284912 52.14717102 C337.55284912 52.14717102 272.87284912 52.14717102 206.23284912 52.14717102 Z M128.23284912 268.14717102 C127.40269287 268.83295227 126.57253662 269.51873352 125.71722412 270.22529602 C114.36667963 279.86255078 105.92174072 291.92245985 99.23284912 305.14717102 C98.76902832 306.05475159 98.76902832 306.05475159 98.2958374 306.98066711 C84.22284661 335.08986618 82.37767532 368.39744077 92.23284912 398.14717102 C103.81424771 429.2630899 125.81855021 455.19698531 156.10003662 469.33076477 C186.59123375 482.98451156 219.55396759 484.09823233 251.07171631 472.70454407 C263.62301117 467.84114006 274.82810348 460.62004137 285.23284912 452.14717102 C286.03206787 451.50135071 286.83128662 450.8555304 287.65472412 450.19013977 C293.63401471 445.12836101 298.47992498 439.35578779 303.23284912 433.14717102 C303.828396 432.37888977 304.42394287 431.61060852 305.03753662 430.81904602 C323.82733061 405.36190578 331.44150277 373.61820463 327.27850342 342.32905579 C324.00572856 320.67779144 315.16775902 300.08598175 301.23284912 283.14717102 C300.80923096 282.62864563 300.38561279 282.11012024 299.94915771 281.57588196 C280.58119392 258.28188113 251.38581348 242.43326603 221.23284912 239.14717102 C186.39828814 237.42661446 154.91855211 244.69609869 128.23284912 268.14717102 Z " fill="#4A96D1" transform="translate(48.76715087890625,-0.1471710205078125)"/>
<path d="M0 0 C5.82225882 5.25013448 11.41514553 10.71982335 16.96884155 16.25198364 C17.46650654 16.74682125 17.96417152 17.24165886 18.47691727 17.75149155 C21.10141248 20.3611247 23.72312128 22.97351753 26.34237671 25.58840942 C29.03896199 28.2794731 31.74473342 30.96110262 34.45267296 33.64073372 C36.54580137 35.71523308 38.63218639 37.79641542 40.71678543 39.87948227 C41.7118263 40.87150584 42.70935672 41.86103903 43.70945358 42.84796524 C45.10425879 44.2256766 46.48868784 45.61386885 47.87265015 47.00247192 C48.66126434 47.78744049 49.44987854 48.57240906 50.26239014 49.38116455 C53.91197793 53.72458945 54.65479195 57.88685084 54.50790405 63.40432739 C53.79193078 68.62198262 51.29243748 71.83091053 47.13290405 75.05667114 C42.59717531 77.56579768 39.35614661 78.10468283 34.19540405 77.68167114 C26.5938913 74.71502671 21.79017465 69.7498888 16.19540405 63.93167114 C15.32528687 63.04350708 14.45516968 62.15534302 13.5586853 61.24026489 C11.42816418 59.06291913 9.30760001 56.87677335 7.19540405 54.68167114 C7.19393749 55.30489573 7.19247093 55.92812031 7.19095993 56.57023048 C7.15388662 71.74406111 7.09486521 86.91763463 7.01150131 102.09127235 C6.97171452 109.4291889 6.93932028 116.76699825 6.92440796 124.10501099 C6.91138948 130.50183678 6.88442012 136.8984267 6.84079099 143.29511964 C6.81818016 146.68127873 6.80249311 150.06714694 6.8035202 153.45338821 C6.80115871 157.2363865 6.77414208 161.01846071 6.74130249 164.80130005 C6.74884804 166.48012772 6.74884804 166.48012772 6.75654602 168.19287109 C6.67407998 174.32633857 6.35713894 178.04868668 2.19540405 182.68167114 C-2.56706174 186.30114515 -6.3187933 187.39028772 -12.30459595 187.13479614 C-17.4549405 186.20129619 -21.40506711 183.69299258 -24.38538837 179.40984821 C-25.92326872 176.45354361 -26.18632624 174.74964808 -26.20332336 171.44880676 C-26.21586151 170.41540665 -26.22839966 169.38200653 -26.24131775 168.31729126 C-26.23988266 167.19447754 -26.23844757 166.07166382 -26.23696899 164.91482544 C-26.25225647 163.12882683 -26.25225647 163.12882683 -26.26785278 161.30674744 C-26.29283459 158.0508854 -26.30470231 154.79529447 -26.31070685 151.53935218 C-26.3200999 148.13333728 -26.34630399 144.72745237 -26.37071228 141.32151794 C-26.41435552 134.87600423 -26.44291576 128.43051578 -26.46603566 121.98489934 C-26.49309907 114.64506584 -26.53700983 107.30536324 -26.58232439 99.96562326 C-26.67513942 84.87104314 -26.74683447 69.77642915 -26.80459595 54.68167114 C-27.37379761 55.27182007 -27.94299927 55.86196899 -28.52944946 56.47000122 C-31.13129301 59.1553405 -33.74891562 61.82476157 -36.36709595 64.49417114 C-37.26234985 65.42294067 -38.15760376 66.35171021 -39.07998657 67.30862427 C-44.38154801 72.68786427 -48.44686466 76.61969226 -55.99209595 78.11526489 C-61.3565827 78.12682629 -64.41910426 76.80211715 -68.80459595 73.68167114 C-72.43872841 69.76063348 -73.94416057 66.69767809 -74.05459595 61.36917114 C-74.09326782 60.26122192 -74.09326782 60.26122192 -74.13272095 59.13088989 C-73.35676278 53.33891644 -69.9060206 49.3994971 -65.92520142 45.3664856 C-65.44178787 44.87299622 -64.95837433 44.37950684 -64.46031189 43.87106323 C-62.87197185 42.25440465 -61.27272425 40.64912725 -59.67178345 39.04495239 C-58.55398121 37.91749821 -57.43640056 36.78982429 -56.31903076 35.66194153 C-53.97903863 33.30402848 -51.63297072 30.95235634 -49.28311157 28.60427856 C-46.28533751 25.60680918 -43.3087288 22.58924179 -40.33706474 19.56591511 C-38.03610803 17.23146719 -35.72150593 14.91091926 -33.40295792 12.59395409 C-32.30020156 11.48767719 -31.20226036 10.37657717 -30.10946274 9.26046181 C-21.98645453 0.98049703 -11.58063859 -8.46011544 0 0 Z " fill="#5789C7" transform="translate(265.8045959472656,265.3183288574219)"/>
</svg>
